<svg xmlns="http://www.w3.org/2000/svg" width="20" height="20"><defs><clipPath id="a"><path d="M0 16h16V0H0v16z"/></clipPath></defs><g clip-path="url(#a)" transform="matrix(1.25 0 0 -1.25 0 20)" fill="#1a171b"><path d="M14.7695 9.434l-9.026.001 3.438 3.438c.555.555.531 1.486-.053 2.07-.584.583-1.513.606-2.068.052l-4.939-4.94-2.122-2.121 1.653-1.653.469-.469L6.9395.993c.546-.545 1.468-.514 2.052.069.584.584.615 1.507.069 2.052l-3.317 3.319 9.026.001c.676-.001 1.229.675 1.23 1.501 0 .825-.554 1.5-1.23 1.499"/></g></svg>