<svg xmlns="http://www.w3.org/2000/svg" width="20" height="20"><defs><clipPath id="a"><path d="M0 0h16v16H0V0z"/></clipPath></defs><g clip-path="url(#a)" transform="matrix(1.3347 0 0 -1.3347 -.0422 20)"><path d="M7.5 14.984c-1.93 0-3.5-1.57-3.5-3.5v-6.5c0-.276.225-.5.5-.5.277 0 .5.224.5.5v6.5c0 1.378 1.121 2.5 2.5 2.5s2.5-1.122 2.5-2.5v-9c0-.827-.672-1.5-1.5-1.5-.826 0-1.5.673-1.5 1.5v8c0 .275.225.5.5.5s.5-.225.5-.5v-6c0-.276.5-.5.5-.5.277 0 .5.224.5.5v6c0 .827-.672 1.5-1.5 1.5-.826 0-1.5-.673-1.5-1.5v-8c0-1.378 1.121-2.5 2.5-2.5s2.5 1.122 2.5 2.5v9c0 1.931-1.57 3.5-3.5 3.5" fill="#1d1d1b"/></g></svg>