<svg xmlns="http://www.w3.org/2000/svg" width="20" height="20"><defs><clipPath id="a"><path d="M0 0h16v16H0V0z"/></clipPath></defs><g clip-path="url(#a)" transform="matrix(1.5072 0 0 -1.5072 -1.6037 21.8196)" fill="#fff"><path d="M10.5273 7.8408l3.182 3.182c.388.389.388 1.025 0 1.414l-1.416 1.414c-.389.388-1.026.388-1.414 0l-3.183-3.182-3.181 3.182c-.388.388-1.025.388-1.414 0l-1.413-1.414c-.39-.389-.39-1.025 0-1.414l3.182-3.182-3.182-3.183c-.39-.388-.39-1.025 0-1.414l1.414-1.413c.389-.389 1.026-.389 1.414 0l3.182 3.181 3.182-3.181c.389-.389 1.024-.389 1.416 0l1.414 1.413c.389.389.389 1.026 0 1.414l-3.183 3.183z"/></g></svg>