<svg xmlns="http://www.w3.org/2000/svg" viewBox="0 0 100 100" height="100" width="100"><g fill="#585759"><path d="M98.306 68.378c-2.538-3.7-11.713-7.825-20.181-11.106-8.456-3.294-11.969-4.175-11.969-4.175l-.281-5.469s6.775-1.562 6.481-9.95c.075 2.056 4.062-2.756 4.175-4.494.112-1.675-.269-6.319-2.694-5.844.494-3.494.856-6.638.675-8.306-.6-5.794-6.494-11.825-15.588-12.387 3.713 3.431 6.163 7.944 6.625 12.694.144 1.5.069 3.456-.244 6.513 2.5 3.475 2.337 8.569 2.269 9.594-.162 3.012-1.974 6.83-4.893 9.018-.888 3.625-2.206 6.144-3.394 7.825l.013 1.919c1.487.681 3.638 1.625 6.656 2.887 1.831.763 3.669 1.469 5.444 2.169 7.45 2.894 13.9 5.381 16.975 10.188 2.206 3.431 3.081 11.512 2.594 24.012h9.025s.002-.088.006-.251V81.958c-.142-5.796-.567-11.94-1.694-13.58z"/><path d="M63.556 62.866c-8.463-3.525-10.469-4.75-10.469-4.75l-.081-8.119s3.175-2.444 4.163-10.075c.144.044.294.062.438.062 1.837 0 3.631-3.156 3.731-4.881.106-1.706-.231-6.3-2.356-6.3-.112 0-.219.006-.331.031.494-3.744.856-7.113.681-8.9-.45-4.669-3.912-9.481-9.45-11.862-2.188-.938-4.675-1.538-7.475-1.538-9.869 0-16.294 6.881-16.925 13.4-.175 1.787.181 5.156.681 8.9-.112-.031-.231-.038-.331-.038-2.125 0-2.469 4.594-2.362 6.3.1 1.725 1.894 4.881 3.731 4.881.15 0 .294-.019.444-.062.981 7.638 4.156 10.081 4.156 10.081l-.081 8.119s-2.006 1.219-10.469 4.75C12.788 66.396 4.237 68.86 1.7 72.828-.588 76.378.1 93.466.1 93.466h84.619s.681-17.081-1.6-20.638c-2.544-3.974-11.106-6.437-19.563-9.962z"/></g></svg>