<svg xmlns="http://www.w3.org/2000/svg" viewBox="0 0 100 100" height="100" width="100"><g fill="#1a171b"><path d="M34.375 37.5h6.25v43.75h-6.25zM46.875 37.5h6.25v43.75h-6.25zM59.375 37.5h6.25v43.75h-6.25z"/><path d="M90.625 18.75h-12.5V6.25c0-3.45-2.794-6.25-6.25-6.25h-43.75c-3.45 0-6.25 2.8-6.25 6.25v12.5h-12.5c-3.45 0-6.25 2.8-6.25 6.25s2.8 6.25 6.25 6.25h6.25v62.5c0 3.456 2.8 6.25 6.25 6.25h56.25c3.456 0 6.25-2.794 6.25-6.25v-62.5h6.25c3.456 0 6.25-2.8 6.25-6.25s-2.794-6.25-6.25-6.25zm-56.25-6.25h31.25v6.25h-31.25V12.5zm37.5 75h-43.75V31.25h43.75V87.5z"/></g></svg>