<svg xmlns="http://www.w3.org/2000/svg" width="20" height="20"><defs><clipPath id="a"><path d="M0 0h16v16H0V0z"/></clipPath></defs><g fill="#1a171b"><path d="M6.875 16.25h1.25V7.5h-1.25v8.75zM9.375 16.25h1.25V7.5h-1.25v8.75zM11.875 16.25h1.25V7.5h-1.25v8.75z"/><g clip-path="url(#a)" transform="matrix(1.25 0 0 -1.25 .625 20)"><path d="M11 2H4v9h7V2zM5 14h5v-1H5v1zm9-1h-2v2c0 .552-.447 1-1 1H4c-.552 0-1-.448-1-1v-2H1c-.552 0-1-.448-1-1s.448-1 1-1h1V1c0-.553.448-1 1-1h9c.553 0 1 .447 1 1v10h1c.553 0 1 .448 1 1s-.447 1-1 1"/></g></g></svg>