<svg xmlns="http://www.w3.org/2000/svg" height="100" width="100"><defs><clipPath id="a"><path d="M0 0h16v16H0V0z"/></clipPath></defs><g clip-path="url(#a)" transform="matrix(6.25 0 0 -6.25 0 100)" fill="#e88d03"><path d="M14 3c0-.552-.447-1-1-1H3c-.551 0-1 .448-1 1v10c0 .551.449 1 1 1h10c.553 0 1-.449 1-1V3zm-1 13H3c-1.657 0-3-1.344-3-3V3c0-1.657 1.343-3 3-3h10c1.658 0 3 1.343 3 3v10c0 1.656-1.342 3-3 3"/></g><path d="M56.25 53.125H75l-25-25-25 25h18.75v18.75h12.5v-18.75z" fill="#e88d03"/></svg>