<svg xmlns="http://www.w3.org/2000/svg" height="100" width="100"><defs><clipPath id="a"><path d="M0 0h16v16H0V0z"/></clipPath></defs><g clip-path="url(#a)" transform="matrix(6.25 0 0 -6.25 0 100)" fill="#5fa027"><path d="M14 3c0-.552-.447-1-1-1H3c-.551 0-1 .448-1 1v10c0 .551.449 1 1 1h10c.553 0 1-.449 1-1V3zm-1 13H3c-1.657 0-3-1.344-3-3V3c0-1.657 1.343-3 3-3h10c1.658 0 3 1.343 3 3v10c0 1.656-1.342 3-3 3"/></g><path d="M47.107 56.4756L33.8443 43.213l-8.8438 8.8376L42.688 69.732l4.419 4.4186L81.163 40.088l-8.8374-8.8374-25.2187 25.225z" fill="#5fa027"/></svg>