<svg xmlns="http://www.w3.org/2000/svg" height="100" width="100"><defs><clipPath id="a"><path d="M0 0h16v16H0V0z"/></clipPath></defs><g clip-path="url(#a)" transform="matrix(6.25 0 0 -6.25 0 100)" fill="#b90b34"><path d="M14 3c0-.552-.447-1-1-1H3c-.551 0-1 .448-1 1v10c0 .551.449 1 1 1h10c.553 0 1-.449 1-1V3zm-1 13H3c-1.657 0-3-1.344-3-3V3c0-1.657 1.343-3 3-3h10c1.658 0 3 1.343 3 3v10c0 1.656-1.342 3-3 3"/></g><path d="M75 35.7172l-10.712-10.712L50 39.2878 35.712 25.005 25 35.7173 39.288 50 25 64.2828l10.7172 10.712 14.288-14.2827 14.2827 14.283L75 64.2827 60.7172 50 75 35.7172z" fill="#b90b34"/></svg>