<svg xmlns="http://www.w3.org/2000/svg" width="100" height="100"><defs><clipPath id="a"><path d="M0 0h16v16H0V0z"/></clipPath></defs><g clip-path="url(#a)" transform="matrix(6.4994 0 0 -6.4994 0 100)" fill="#fff"><path d="M8.025 10.619c.534 0 .971.438.971.982 0 .545-.437.971-.971.971-.545 0-.982-.426-.982-.971 0-.544.437-.982.982-.982m1.516-5.5174h-.758v4.583c0 .13-.023.166-.166.166H6.51c-.143 0-.166-.036-.166-.166v-.77c0-.13.023-.167.166-.167h.769v-3.646h-.758c-.142 0-.166-.035-.166-.166v-.77c0-.13.024-.166.166-.166h3.02c.143 0 .166.036.166.166v.77c0 .131-.023.166-.166.166"/><path d="M7.693 1.125c-3.621 0-6.568 2.945-6.568 6.566 0 3.623 2.947 6.568 6.568 6.568 3.622 0 6.568-2.946 6.568-6.568.001-3.621-2.946-6.566-6.568-6.566m0 14.26C3.445 15.385 0 11.941 0 7.693 0 3.443 3.445 0 7.693 0c4.249 0 7.693 3.443 7.693 7.693.001 4.248-3.444 7.692-7.693 7.692"/></g></svg>