<svg xmlns="http://www.w3.org/2000/svg" width="20" height="20"><defs><clipPath id="a"><path d="M0 0h16v16H0V0z"/></clipPath></defs><g fill="#fff"><g clip-path="url(#a)" transform="matrix(1.25 0 0 -1.25 0 20)"><path d="M12 6c0 1.818-.011 5.283-3.021 5.896.003.036.021.067.021.104 0 .552-.448 1-1 1s-1-.448-1-1c0-.037.017-.068.021-.104C4.011 11.283 4 7.818 4 6c0-2-2-3-2-3V2h12v1s-2 1-2 3M7 0h2c.55 0 1 .449 1 1H6c0-.551.45-1 1-1"/></g><path d="M0 1.2496v1.25h2.4775L0 5.271v.98h3.75v-1.25H1.9187L3.75 2.951V1.2495H0zM20 0h-5v1.25h2.8537L15 5.1787V6.25h5V5h-3.3262L20 .425V0z"/></g></svg>