<svg xmlns="http://www.w3.org/2000/svg" width="600" height="180"><path d="M513.875 7.062c.3077-3.2016 3.6138-4.869 9.468-4.854l5.2537.0114c2.555.007 8.5575.326 8.546 4.745l-11.326 97.6585c-.3056 3.2004-.8717 4.8666-6.7248 4.855l-5.2526-.0148c-2.5562-.007-8.562-.326-8.5494-4.7438l8.585-97.6574z" fill="#e88d03"/><path d="M593.4752 25.6053c3.251-.1103 5.2973 2.7055 5.938 8.0568l.4146 3.5037c.278 2.3357.7774 5.4994-3.6655 6.031l-99.3995 2.516c-3.2498.1103-5.2973-2.7066-5.9358-8.0544l-.5707-4.8035c-.2756-2.3312-.6258-7.8524 3.8217-8.383l99.3972 1.1335z" fill="#e88d03"/><path d="M559.5205 7.6025c.464-3.088 2.3196-4.6324 8.0338-4.6324h7.4137c5.558 0 7.2564 1.6985 7.2564 4.172 0 0-10.4488 89.8843-10.4488 90.502 0 3.5485 1.3884 5.094 4.6324 5.094 2.1624 0 3.862-.9277 4.481-.9277.9254 0 1.231.309 1.231 1.6984 0 .31-.1517 3.8607-1.0796 9.267-.9267 5.7166-8.183 8.0293-13.5918 8.0293-12.0392 0-18.6847-5.713-18.6847-19.6125 0-4.7852 10.7565-93.59 10.7565-93.59" fill="#e88d03"/><path d="M589.3662 63.2747c3.2498-.1102 5.3007-.032 5.9357 5.318l.573 4.8024c.2756 2.3324.6212 7.8548-3.824 8.382l-99.3937 5.258c-3.2544.1127-5.303-2.7088-5.938-8.0567l-.5708-4.8023c-.2814-2.3312-.6293-7.8536 3.8228-8.384l99.395-2.5173z" fill="#e88d03"/><path d="M13.9788 36.559c.4157-4.3833 4.381-6.6766 13.1428-6.6766h7.2988c8.972 0 11.8934 2.2933 11.8934 6.6765L40.471 92.467l.836.208 42.3487-58.8297c2.2932-3.128 6.882-3.963 12.9326-3.963h9.807c7.9246 0 11.473 1.2518 11.473 2.9215 0 1.0415-.626 2.7112-2.089 4.59L69.051 99.1412l38.178 70.096c.8336 1.6686 1.2516 2.9203 1.2516 3.7563 0 2.2944-2.7113 3.755-11.8923 3.755h-12.099c-6.6775 0-10.8483-.836-12.308-3.964l-32.754-63.422-.8338.2125-6.2584 60.4937c-.4156 4.3833-4.3797 6.68-13.1416 6.68H11.891c-8.9696 0-11.891-2.2967-11.891-6.68L13.9788 36.559zM179.6207 161.311C172.3184 169.8606 159.5937 178 146.244 178c-18.7753 0-27.5384-8.3462-27.5384-26.4946 0-7.301 7.7192-78.023 7.7192-78.023.417-4.3833 5.0056-6.673 13.1428-6.673h5.8428c8.3438 0 11.8888 3.127 11.8888 6.465 0 0-7.0922 66.3376-7.0922 69.049 0 6.472 3.1292 10.227 11.2653 10.227 7.927 0 14.1843-6.0518 17.9394-11.271 2.0865-22.735 7.0933-67.797 7.0933-67.797.419-4.3833 5.0056-6.673 13.145-6.673h5.8383c8.3438 0 11.8922 3.127 11.8922 6.465 0 0-7.7192 71.3444-7.7192 73.432 0 4.799 1.8787 6.882 6.2585 6.882 2.919 0 5.2146-1.2504 6.0495-1.2504 1.2517 0 1.6697.419 1.6697 2.2955 0 .4192-.209 5.2146-1.4596 12.517C220.9254 174.8685 211.122 178 203.821 178c-13.143 0-21.488-5.0068-24.2003-16.689M251.806 35.7038c.627-3.8814 3.1303-5.8232 10.847-5.8232h10.0125c7.5125 0 9.8058 2.1347 9.8058 5.241 0 0-12.7248 112.981-12.7248 113.7584 0 4.4636 1.8775 6.4066 6.2584 6.4066 2.9213 0 5.2146-1.168 6.0494-1.168 1.254 0 1.6697.3905 1.6697 2.1383 0 .387-.209 4.8505-1.4606 11.6487-1.2505 7.1783-11.055 10.094-18.3586 10.094-16.272 0-25.2406-7.183-25.2406-24.656 0-6.0174 13.1417-117.64 13.1417-117.64M313.765 35.7038c.628-3.8814 3.1314-5.8232 10.8494-5.8232h10.0147c7.509 0 9.8035 2.1347 9.8035 5.241 0 0-12.726 112.981-12.726 113.7584 0 4.4636 1.8776 6.4066 6.2586 6.4066 2.9214 0 5.2147-1.168 6.0518-1.168 1.2517 0 1.6663.3905 1.6663 2.1383 0 .387-.2078 4.8505-1.4595 11.6487-1.2505 7.1783-11.055 10.094-18.3574 10.094-16.272 0-25.2416-7.183-25.2416-24.656 0-6.0174 13.1405-117.64 13.1405-117.64M432.8887 112.9103c0-15.2293-5.0067-22.9462-16.272-22.9462-14.6035 0-23.3653 14.1844-23.3653 40.887 0 15.0202 5.2146 22.7382 16.481 22.7382 14.3922 0 23.1563-14.1843 23.1563-40.679M419.12 65.556c29.8306 0 45.27 16.0608 45.27 45.8947 0 42.7666-21.9057 66.5488-57.162 66.5488-29.8307 0-45.27-16.064-45.27-45.6902 0-34.0036 13.5618-66.7533 57.162-66.7533" fill="#1a171b"/></svg>