<svg xmlns="http://www.w3.org/2000/svg" width="20" height="20"><defs><clipPath id="a"><path d="M0 0h16v16H0V0z"/></clipPath></defs><g clip-path="url(#a)" transform="matrix(1.21914 0 0 -1.21914 -.0062 19.2868)" fill="#fff"><path d="M15.707 12.021l-1.414 1.415c-.389.389-1.024.387-1.408-.005L6.102 6.383 3.535 8.95c-.389.388-1.025.388-1.414 0L.707 7.535c-.389-.389-.389-1.025 0-1.414l2.566-2.566 2.121-2.121c.389-.389 1.026-.389 1.415 0L8.93 3.555l6.783 7.048c.385.392.383 1.029-.006 1.418"/></g></svg>