<svg xmlns="http://www.w3.org/2000/svg" viewBox="0 0 100 100" height="100" width="100"><defs><clipPath id="a"><path d="M0 0h16v16H0V0z"/></clipPath></defs><g clip-path="url(#a)" transform="matrix(6.25012 0 0 -6.25012 -.005 100)" fill="#1a171b"><path d="M13.5898 3.8047c-.516.424-1.529.741-2.543 1.164-1.207.502-1.49.678-1.49.678l-.012 1.158s.449.346.592 1.438c.281-.084.578.419.596.684.014.255-.039.965-.385.895.07.533.121 1.013.096 1.267-.088.931-1.004 1.911-2.414 1.911-1.405 0-2.323-.98-2.413-1.911-.024-.255.026-.735.097-1.267-.346.07-.4-.64-.383-.895.015-.265.311-.768.594-.684.14-1.092.592-1.438.592-1.438l-.011-1.158s-.286-.176-1.491-.678c-1.038-.433-2.079-.754-2.583-1.193-.894 1.175-1.431 2.636-1.431 4.224 0 3.86 3.14 7 7 7 3.859 0 6.999-3.14 6.999-7 0-1.574-.529-3.023-1.41-4.195m-5.589 12.195c-4.418 0-8-3.581-8-8 0-2.049.776-3.911 2.043-5.327 1.464-1.637 3.588-2.673 5.957-2.673 2.398 0 4.544 1.061 6.011 2.733 1.234 1.408 1.988 3.248 1.988 5.267 0 4.418-3.582 8-7.999 8"/></g></svg>