<svg xmlns="http://www.w3.org/2000/svg" viewBox="0 0 100 100" height="100" width="100"><path d="M68.2007 51.6265c-2.9744 7.566-8.9935 13.5625-16.5583 16.5608-3.314 1.2766-6.909 2.073-10.6564 2.073-16.1485.0117-29.2757-13.141-29.2523-29.28-.0234-16.139 13.1038-29.28 29.2523-29.2683 16.1485-.0117 29.2757 13.1292 29.2757 29.2683 0 3.7595-.7846 7.3317-2.061 10.6462m8.7125 8.7137c3.115-5.809 5.0588-12.3327 5.0588-19.36C81.972 18.341 63.622 0 40.986 0 18.3383 0 0 18.341 0 40.9803c0 22.6276 18.3383 40.992 40.986 40.992 7.038.0117 13.584-1.9325 19.3688-5.0713l21.383 21.386c2.26 2.284 6.019 2.284 8.2792 0l8.279-8.2803c2.2836-2.2604 2.2602-5.9965 0-8.2804l-21.3828-21.386z" fill="#1a171b"/></svg>