<svg xmlns="http://www.w3.org/2000/svg" width="100" height="100"><defs><clipPath id="a"><path d="M0 0h16v16H0V0z"/></clipPath></defs><g clip-path="url(#a)" transform="matrix(6.66622 0 0 -6.66622 -.14 99.998)" fill="#fff"><path d="M7.314 5.417c-1.15 0-2.082.931-2.082 2.083 0 1.15.932 2.081 2.082 2.081 1.151 0 2.084-.931 2.084-2.081 0-1.152-.933-2.083-2.084-2.083m6.874 3.542h-2.09c-.125.4-.3.778-.513 1.13l1.386 1.39c.327.322.327.851 0 1.177l-.589.587c-.325.325-.855.323-1.178 0l-1.41-1.407c-.38.217-.792.385-1.231.498v1.83c0 .459-.371.834-.834.834h-.833c-.459 0-.832-.375-.832-.834v-1.83a4.8874 4.8874 0 0 1-1.34-.563l-1.18 1.179c-.324.323-.854.325-1.179 0l-.59-.589c-.325-.324-.321-.853.002-1.179L2.978 9.98c-.254-.443-.444-.926-.553-1.439H.857c-.462 0-.836-.373-.836-.834v-.832c0-.459.374-.832.836-.832h1.674c.152-.502.381-.965.674-1.387L2.072 3.523c-.326-.326-.326-.855-.002-1.18l.588-.589c.328-.322.856-.322 1.18.001l1.267 1.266c.426-.212.889-.365 1.375-.445V.834c0-.459.373-.833.833-.834h.833c.46.001.833.375.833.834v1.957c.419.148.817.348 1.179.602l1.34-1.344c.326-.324.854-.324 1.18 0l.588.59c.328.324.328.852-.002 1.179l-1.469 1.473c.18.366.32.756.406 1.169h1.987c.46 0 .832.371.834.833v.832c-.002.459-.374.834-.834.834"/></g></svg>