<svg xmlns="http://www.w3.org/2000/svg" width="20" height="20"><path d="M11.405 5.0617L8.428 7.2615c-.509.3747-.9252.6057-.9252.5114 0-.092-.5172-.168-1.1493-.168h-.9194c-.632 0-1.1493.5185-1.1493 1.1494v2.5273c0 .632.5172 1.1493 1.1493 1.1493h.9194c.632 0 1.1493-.0276 1.1493-.061 0-.0344.416.2472.9252.622l2.9767 2.1985c.509.3735.925.1655.925-.4678V5.5284c0-.631-.416-.8413-.925-.4667" fill="#1a171b"/><path d="M10 18.6667c-1.808 0-3.488-.5587-4.88-1.5107l3.7173-3.716c2.3542-2.359 2.5958-2.604 4.4974-4.4973L17.156 5.12c.9533 1.3907 1.512 3.0707 1.512 4.88 0 4.7787-3.8893 8.6667-8.668 8.6667M1.3333 10c0-4.7787 3.8894-8.6667 8.6667-8.6667 2.4893 0 4.728 1.06 6.312 2.7454l-2.9773 2.9786c-1.6435 1.629-1.9306 1.9593-5.652 5.6507L4.08 16.312C2.3933 14.7293 1.3333 12.4893 1.3333 10M10 0C4.4773 0 0 4.4787 0 10c0 5.524 4.4773 10 10 10 5.524 0 10-4.476 10-10 .0014-5.5213-4.476-10-10-10" fill="#1a171b"/></svg>