<svg xmlns="http://www.w3.org/2000/svg" viewBox="0 0 100 100" height="100" width="100"><defs><clipPath id="a"><path d="M0 0h16v16H0V0z"/></clipPath></defs><g fill="#1a171b"><g clip-path="url(#a)" transform="matrix(6.25 0 0 -6.25 0 100)"><path d="M8.001 1c-3.86 0-7 3.141-7 7 0 3.86 3.14 7 7 7 3.858 0 7-3.14 7-7 0-3.859-3.142-7-7-7m0 15C3.583 16 0 12.418 0 8s3.582-8 8-8c4.417 0 8 3.582 8 8s-3.582 8-7.999 8"/></g><path d="M58.85 37.1613L50 9.9175l-8.85 27.2438H12.5L35.6875 54.005l-8.8688 27.2437L50 64.405l23.1937 16.8438-8.875-27.2438L87.5 37.1612H58.85z"/></g></svg>