<svg xmlns="http://www.w3.org/2000/svg" height="100" width="100"><path d="M50 10c-22.099 0-40 17.901-40 40s17.901 40 40 40 40-17.901 40-40-17.901-40-40-40zm0 5.7143c18.9355 0 34.2857 15.3502 34.2857 34.2857 0 18.9355-15.3502 34.2857-34.2857 34.2857-18.9355 0-34.2857-15.3502-34.2857-34.2857 0-18.9355 15.3502-34.2857 34.2857-34.2857z" color="#000" overflow="visible" fill="#1a171b"/><path d="M91.0213 4.7332L48.6748 53.473 30.3964 35.206l-6.091 12.1817L43.2486 68.581l4.4148 5.5113 4.6023-5.3352 45.1466-57.9193" fill="#1a171b"/></svg>