<svg xmlns="http://www.w3.org/2000/svg" height="100" width="100"><defs><clipPath id="a"><path d="M0 0h16v16H0V0z"/></clipPath></defs><g fill="#1a171b"><g clip-path="url(#a)" transform="matrix(6.25 0 0 -6.25 5 100)"><path d="M9.793 1.7324l-1.061 1.061-1.731 1.732 1.06 1.061 1.732-1.733 3.146 3.147L14 5.9394l-4.207-4.207zm.707 7.268c-2.486 0-4.499-2.016-4.499-4.5 0-2.487 2.013-4.5 4.499-4.5 2.486 0 4.5 2.013 4.5 4.5 0 2.484-2.014 4.5-4.5 4.5"/></g><path d="M23.752 43.7512h25.006v-6.25H23.752v6.25zm0 12.5h12.506v-6.25H23.752v6.25zm0 12.5h12.506v-6.25H23.752v6.25z"/><path d="M23.75 0v6.25H5V100h37.5063V87.5H17.5V18.7562h6.25v6.25H67.5v-6.25h6.25V37.5h12.5V6.25H67.5V0H23.75zM30 6.25h31.25v6.25H30V6.25z"/></g></svg>