<svg xmlns="http://www.w3.org/2000/svg" height="16" width="16"><g fill="#e88d03"><path d="M4.0708.655C4.1123.223 4.5583-.002 5.348 0l.709.0016c.3446.001 1.1544.044 1.1528.6402l-1.528 13.1754c-.0412.4318-.1176.6566-.9072.655l-.7086-.002c-.3448-.001-1.155-.044-1.1534-.64L4.071.6522z"/><path d="M14.8098 3.157c.4386-.015.7147.365.801 1.087l.056.4725c.0376.315.105.742-.4944.8137L1.762 5.8696c-.4384.015-.7146-.365-.8008-1.0866l-.077-.648c-.0372-.3145-.0844-1.0594.5156-1.131l13.4098.153z"/><path d="M10.2288.7277c.0625-.4166.313-.625 1.0838-.625h1.0002c.75 0 .979.2292.979.5628 0 0-1.4097 12.1262-1.4097 12.2098 0 .4788.1874.6873.625.6873.2918 0 .521-.1252.6046-.1252.1248 0 .166.0417.166.229 0 .042-.0204.521-.1456 1.2503C13.007 15.688 12.028 16 11.2984 16c-1.6242 0-2.5208-.7708-2.5208-2.646 0-.6456 1.4512-12.6262 1.4512-12.6262"/><path d="M14.2554 8.2385c.4385-.015.7152-.0043.801.7174l.0772.6478c.037.3147.0838 1.0598-.516 1.1308l-13.4097.7098c-.439.0154-.7155-.3652-.801-1.0867l-.0772-.6482C.2918 9.395.2448 8.65.8456 8.5787l13.4092-.3396z"/></g></svg>