<svg xmlns="http://www.w3.org/2000/svg" height="100" width="100"><g fill="#54b9bb"><path d="M30.354 13.2744C30.5614 11.1148 32.7915 9.99 36.7405 10l3.544.0078c1.7234.0046 5.7724.22 5.7645 3.2008l-7.64 65.877c-.206 2.159-.588 3.283-4.536 3.2752l-3.5432-.01c-1.7243-.0046-5.7756-.22-5.767-3.2l5.7924-65.89z"/><path d="M84.049 25.7847c2.193-.0743 3.5733 1.825 4.0056 5.4346l.2796 2.3634c.1874 1.5756.5244 3.7097-2.4726 4.0682l-67.0514 1.697c-2.1922.074-3.5733-1.826-4.004-5.433l-.385-3.2406c-.186-1.5724-.4222-5.297 2.578-5.6546l67.0487.7646z"/><path d="M61.1437 13.6385c.313-2.083 1.5648-3.1248 5.4193-3.1248h5.001c3.7493 0 4.895 1.1456 4.895 2.814 0 0-7.0483 60.631-7.0483 61.049 0 2.3935.9365 3.436 3.125 3.436 1.4585 0 2.605-.6258 3.0224-.6258.6248 0 .8308.208.8308 1.1452 0 .2092-.1022 2.6044-.728 6.2513C75.035 88.44 70.1402 90 66.4918 90c-8.121 0-12.604-3.854-12.604-13.2298 0-3.228 7.256-63.131 7.256-63.131"/><path d="M81.277 51.1925c2.1923-.0744 3.5758-.0217 4.0042 3.5872l.3866 3.2395c.186 1.5732.419 5.2984-2.5795 5.6538l-67.049 3.5487c-2.195.077-3.5768-1.8256-4.005-5.4333l-.3852-3.241c-.1893-1.5718-.424-5.2975 2.579-5.654l67.0465-1.698z"/></g></svg>