<svg xmlns="http://www.w3.org/2000/svg" height="16" width="16"><path d="M5.5127.5c-.7404-.002-1.1583.2103-1.1972.6152l-.1953 2.2285-2.3106-.0273c-.5625.067-.5173.7657-.4824 1.0605l.0722.6074c.0808.6763.339 1.0334.75 1.0195l1.7403-.045-.2227 2.5234-2.377.0606c-.563.0668-.518.7658-.4823 1.0605l.0722.6074c.0802.6763.3383 1.034.75 1.0195l1.8046-.0957-.205 2.332c-.0017.5587.7567.5987 1.08.5996l.664.002c.7404.0014.813-.2085.8516-.6133l.2852-2.4628 2.8574-.1504c-.0703.653-.2402 2.0705-.2402 2.1778 0 1.758.8406 2.4804 2.3633 2.4804.684 0 1.6014-.2925 1.7186-1.0156.1173-.6838.1367-1.1327.1367-1.172 0-.1756-.0392-.2147-.1562-.2147-.0782 0-.293.1172-.5663.1172-.4104 0-.586-.196-.586-.6447 0-.0128.1572-1.3587.2168-1.8808l2.3477-.125c.5622-.0666.5192-.7656.4844-1.0606l-.0723-.6075c-.0804-.6766-.341-.6858-.752-.672l-1.7285.043c.1367-1.1827.1508-1.314.291-2.5234l2.297-.0585c.5618-.0672.5-.4682.4648-.7636l-.0528-.4435c-.081-.6768-.3407-1.0315-.752-1.0176l-1.6894-.0196c.0864-.7435.2676-2.3164.2676-2.3164 0-.313-.215-.5274-.918-.5274h-.9375c-.7227 0-.959.1954-1.0176.586 0 0-.182 1.5298-.2657 2.2246l-2.828-.0313.2636-2.2755C7.2583.5425 6.5.5028 6.1767.502L5.5128.5zm4.0215 5.3164c-.1394 1.1726-.1528 1.3514-.289 2.5254l-2.836.0722.293-2.5253 2.832-.0723z" fill="#fff" stroke="#000" stroke-opacity=".502"/></svg>