<svg xmlns="http://www.w3.org/2000/svg" height="16" width="16"><path d="M5.4767.3923c-.7498-.002-1.174.2126-1.2147.6222L4.0633 3.275 1.723 3.249c-.5706.068-.5257.7762-.4903 1.0753l.0724.6166c.082.6862.3447 1.047.7616 1.0326l1.7627-.0445-.2248 2.5595-2.409.0613C.624 8.6176.669 9.3264.7052 9.6252l.0724.6166c.081.686.344 1.0474.7615 1.0327l1.8296-.0966-.208 2.3662c-.0015.5668.7698.6083 1.0977.6092l.6742.002c.751.0015.8227-.2135.8618-.6242l.2898-2.4963 2.879-.1524c-.1333 1.1874-.2248 2.052-.2248 2.2084 0 1.7833.8533 2.5167 2.398 2.5167.6936 0 1.6248-.2973 1.744-1.0308.119-.6936.1374-1.149.1374-1.1888 0-.178-.0392-.2173-.158-.2173-.0796 0-.296.1188-.5738.1188-.416 0-.5944-.1985-.5944-.6538 0-.013.1605-1.379.221-1.9094l2.3793-.1263c.5704-.0675.5255-.776.4904-1.0754l-.0724-.6168c-.0816-.6863-.3445-.696-.7615-.6816h-.0018l-1.7515.0446c.1388-1.2005.153-1.334.2954-2.5613l2.3292-.0595c.57-.0682.5057-.4732.47-.7727l-.052-.4495c-.0822-.6866-.3445-1.0488-.7616-1.0345l-1.7162-.0186c.0876-.754.2712-2.3496.2712-2.3496 0-.3172-.2173-.535-.9306-.535h-.951c-.733 0-.9713.1983-1.0308.5945 0 0-.1844 1.5518-.2693 2.2568l-2.8697-.0335.2675-2.305c.0015-.567-.7682-.6082-1.096-.6092L5.477.3924zm4.0806 5.392c-.1224 1.029-.1783 1.5097-.301 2.5612L6.387 8.418l.2972-2.5614 2.8733-.0724z" fill="none" stroke="#000" stroke-width=".785"/></svg>