<svg xmlns="http://www.w3.org/2000/svg" width="20" height="20"><defs><clipPath id="a"><path d="M0 0h16v16H0V0z"/></clipPath></defs><g clip-path="url(#a)" transform="matrix(1.25 0 0 -1.25 .27 21)" fill="#1a171b"><path d="M15.2578 3.789c-.467.729-2.035 1.182-3.59 1.829-1.553.648-1.922.872-1.922.872l-.013 1.49s.582.448.761 1.85c.366-.105.746.543.768.885.02.329-.051 1.242-.494 1.15.09.688.156 1.306.125 1.633-.117 1.197-1.295 2.46-3.108 2.46-1.813 0-2.992-1.263-3.107-2.46-.032-.327.034-.945.124-1.633-.444.092-.514-.821-.494-1.15.021-.342.402-.99.767-.885.18-1.402.763-1.85.763-1.85l-.015-1.49s-.369-.224-1.922-.872c-1.554-.647-3.123-1.1-3.59-1.829C-.1082 3.137.0178 0 .0178 0h15.533s.127 3.137-.293 3.789"/></g></svg>