<?xml version="1.0" encoding="UTF-8" standalone="no"?>
<!-- Created with Inkscape (http://www.inkscape.org/) -->

<svg
   xmlns:dc="http://purl.org/dc/elements/1.1/"
   xmlns:cc="http://creativecommons.org/ns#"
   xmlns:rdf="http://www.w3.org/1999/02/22-rdf-syntax-ns#"
   xmlns:svg="http://www.w3.org/2000/svg"
   xmlns="http://www.w3.org/2000/svg"
   xmlns:sodipodi="http://sodipodi.sourceforge.net/DTD/sodipodi-0.dtd"
   xmlns:inkscape="http://www.inkscape.org/namespaces/inkscape"
   version="1.1"
   width="20"
   height="20"
   id="svg2"
   xml:space="preserve"
   inkscape:version="0.48.4 r9939"
   sodipodi:docname="arrow-rounded-right.svg"><sodipodi:namedview
     pagecolor="#ffffff"
     bordercolor="#666666"
     borderopacity="1"
     objecttolerance="10"
     gridtolerance="10"
     guidetolerance="10"
     inkscape:pageopacity="0"
     inkscape:pageshadow="2"
     inkscape:window-width="1855"
     inkscape:window-height="1056"
     id="namedview12"
     showgrid="false"
     inkscape:zoom="11.8"
     inkscape:cx="10"
     inkscape:cy="10"
     inkscape:window-x="65"
     inkscape:window-y="24"
     inkscape:window-maximized="1"
     inkscape:current-layer="svg2" /><metadata
     id="metadata8"><rdf:RDF><cc:Work
         rdf:about=""><dc:format>image/svg+xml</dc:format><dc:type
           rdf:resource="http://purl.org/dc/dcmitype/StillImage" /><dc:title /></cc:Work></rdf:RDF></metadata><defs
     id="defs6"><clipPath
       id="clipPath16"><path
         d="M 0,16 16,16 16,0 0,0 0,16 z"
         id="path18" /></clipPath></defs><g
     transform="matrix(-1.25,0,0,-1.25,19.999375,20)"
     id="g10"><g
       id="g12"
       style="fill:#1a171b;fill-opacity:1"><g
         clip-path="url(#clipPath16)"
         id="g14"
         style="fill:#1a171b;fill-opacity:1"><g
           transform="translate(14.7695,9.4341)"
           id="g20"
           style="fill:#1a171b;fill-opacity:1"><path
             d="m 0,0 -9.026,0.001 3.438,3.438 c 0.555,0.555 0.531,1.486 -0.053,2.07 -0.584,0.583 -1.513,0.606 -2.068,0.052 l -4.939,-4.94 -2.122,-2.121 1.653,-1.653 0.469,-0.469 4.818,-4.819 c 0.546,-0.545 1.468,-0.514 2.052,0.069 0.584,0.584 0.615,1.507 0.069,2.052 L -9.026,-3.001 0,-3 C 0.676,-3.001 1.229,-2.325 1.23,-1.499 1.23,-0.674 0.676,0.001 0,0"
             id="path22"
             style="fill:#1a171b;fill-opacity:1;fill-rule:nonzero;stroke:none"
             inkscape:connector-curvature="0" /></g></g></g></g></svg>