<?xml version="1.0" encoding="UTF-8" standalone="no"?>
<!-- Created with Inkscape (http://www.inkscape.org/) -->

<svg
   xmlns:dc="http://purl.org/dc/elements/1.1/"
   xmlns:cc="http://creativecommons.org/ns#"
   xmlns:rdf="http://www.w3.org/1999/02/22-rdf-syntax-ns#"
   xmlns:svg="http://www.w3.org/2000/svg"
   xmlns="http://www.w3.org/2000/svg"
   version="1.1"
   width="20"
   height="20"
   id="svg2"
   xml:space="preserve"><metadata
     id="metadata8"><rdf:RDF><cc:Work
         rdf:about=""><dc:format>image/svg+xml</dc:format><dc:type
           rdf:resource="http://purl.org/dc/dcmitype/StillImage" /><dc:title></dc:title></cc:Work></rdf:RDF></metadata><defs
     id="defs6"><clipPath
       id="clipPath16"><path
         d="M 0,0 16,0 16,16 0,16 0,0 z"
         id="path18" /></clipPath></defs><g
     transform="matrix(1.25,0,0,-1.25,0,20)"
     id="g10"><g
       transform="matrix(1.0677714,0,0,1.0677714,-0.03379743,0)"
       id="g12"
       style="fill:#ffffff"><g
         clip-path="url(#clipPath16)"
         id="g14"
         style="fill:#ffffff"><g
           transform="translate(7.5,14.9839)"
           id="g20"
           style="fill:#ffffff"><path
             d="m 0,0 c -1.93,0 -3.5,-1.57 -3.5,-3.5 l 0,-6.5 c 0,-0.276 0.225,-0.5 0.5,-0.5 0.277,0 0.5,0.224 0.5,0.5 l 0,6.5 c 0,1.378 1.121,2.5 2.5,2.5 1.379,0 2.5,-1.122 2.5,-2.5 l 0,-9 C 2.5,-13.327 1.828,-14 1,-14 c -0.826,0 -1.5,0.673 -1.5,1.5 l 0,8 c 0,0.275 0.225,0.5 0.5,0.5 0.275,0 0.5,-0.225 0.5,-0.5 l 0,-6 C 0.5,-10.776 1,-11 1,-11 c 0.277,0 0.5,0.224 0.5,0.5 l 0,6 C 1.5,-3.673 0.828,-3 0,-3 -0.826,-3 -1.5,-3.673 -1.5,-4.5 l 0,-8 c 0,-1.378 1.121,-2.5 2.5,-2.5 1.379,0 2.5,1.122 2.5,2.5 l 0,9 C 3.5,-1.569 1.93,0 0,0"
             id="path22"
             style="fill:#ffffff;fill-opacity:1;fill-rule:nonzero;stroke:none" /></g></g></g></g></svg>