<?xml version="1.0" encoding="UTF-8" standalone="no"?>
<!-- Created with Inkscape (http://www.inkscape.org/) -->

<svg
   xmlns:dc="http://purl.org/dc/elements/1.1/"
   xmlns:cc="http://creativecommons.org/ns#"
   xmlns:rdf="http://www.w3.org/1999/02/22-rdf-syntax-ns#"
   xmlns:svg="http://www.w3.org/2000/svg"
   xmlns="http://www.w3.org/2000/svg"
   xmlns:sodipodi="http://sodipodi.sourceforge.net/DTD/sodipodi-0.dtd"
   xmlns:inkscape="http://www.inkscape.org/namespaces/inkscape"
   id="svg2"
   version="1.1"
   inkscape:version="0.48.4 r9939"
   width="24"
   height="24"
   xml:space="preserve"
   sodipodi:docname="attach.svg"
   inkscape:export-filename="/home/simon/Kullo/farcaster/Farcaster/ui/icons/24/attach.png"
   inkscape:export-xdpi="90"
   inkscape:export-ydpi="90"><metadata
     id="metadata8"><rdf:RDF><cc:Work
         rdf:about=""><dc:format>image/svg+xml</dc:format><dc:type
           rdf:resource="http://purl.org/dc/dcmitype/StillImage" /><dc:title></dc:title></cc:Work></rdf:RDF></metadata><defs
     id="defs6"><clipPath
       clipPathUnits="userSpaceOnUse"
       id="clipPath16"><path
         d="M 0,0 16,0 16,16 0,16 0,0 z"
         id="path18"
         inkscape:connector-curvature="0" /></clipPath></defs><sodipodi:namedview
     pagecolor="#ffffff"
     bordercolor="#666666"
     borderopacity="1"
     objecttolerance="10"
     gridtolerance="10"
     guidetolerance="10"
     inkscape:pageopacity="0"
     inkscape:pageshadow="2"
     inkscape:window-width="1855"
     inkscape:window-height="1056"
     id="namedview4"
     showgrid="false"
     showguides="true"
     inkscape:guide-bbox="true"
     inkscape:zoom="23.6"
     inkscape:cx="17.80975"
     inkscape:cy="8.8070574"
     inkscape:window-x="65"
     inkscape:window-y="24"
     inkscape:window-maximized="1"
     inkscape:current-layer="g10"><sodipodi:guide
       orientation="0,1"
       position="0,22"
       id="guide2999" /><sodipodi:guide
       orientation="0,1"
       position="0,2"
       id="guide3001" /><sodipodi:guide
       orientation="1,0"
       position="17,16.398305"
       id="guide3003" /><sodipodi:guide
       orientation="1,0"
       position="7,0"
       id="guide3005" /></sodipodi:namedview><g
     id="g10"
     inkscape:groupmode="layer"
     inkscape:label="Edition-52"
     transform="matrix(1.25,0,0,-1.25,0,24)"><g
       id="g12"
       transform="matrix(1.0677714,0,0,1.0677714,1.8545144,1.6)"><g
         id="g14"
         clip-path="url(#clipPath16)"><g
           id="g20"
           transform="translate(7.5,14.9839)"><path
             d="m 0,0 c -1.93,0 -3.5,-1.57 -3.5,-3.5 l 0,-6.5 c 0,-0.276 0.225,-0.5 0.5,-0.5 0.277,0 0.5,0.224 0.5,0.5 l 0,6.5 c 0,1.378 1.121,2.5 2.5,2.5 1.379,0 2.5,-1.122 2.5,-2.5 l 0,-9 C 2.5,-13.327 1.828,-14 1,-14 c -0.826,0 -1.5,0.673 -1.5,1.5 l 0,8 c 0,0.275 0.225,0.5 0.5,0.5 0.275,0 0.5,-0.225 0.5,-0.5 l 0,-6 C 0.5,-10.776 1,-11 1,-11 c 0.277,0 0.5,0.224 0.5,0.5 l 0,6 C 1.5,-3.673 0.828,-3 0,-3 -0.826,-3 -1.5,-3.673 -1.5,-4.5 l 0,-8 c 0,-1.378 1.121,-2.5 2.5,-2.5 1.379,0 2.5,1.122 2.5,2.5 l 0,9 C 3.5,-1.569 1.93,0 0,0"
             style="fill:#1d1d1b;fill-opacity:1;fill-rule:nonzero;stroke:none"
             id="path22"
             inkscape:connector-curvature="0" /></g></g></g></g></svg>