<?xml version="1.0" encoding="UTF-8" standalone="no"?>
<!-- Created with Inkscape (http://www.inkscape.org/) -->

<svg
   xmlns:dc="http://purl.org/dc/elements/1.1/"
   xmlns:cc="http://creativecommons.org/ns#"
   xmlns:rdf="http://www.w3.org/1999/02/22-rdf-syntax-ns#"
   xmlns:svg="http://www.w3.org/2000/svg"
   xmlns="http://www.w3.org/2000/svg"
   version="1.1"
   width="20"
   height="20"
   id="svg2"
   xml:space="preserve"><metadata
     id="metadata8"><rdf:RDF><cc:Work
         rdf:about=""><dc:format>image/svg+xml</dc:format><dc:type
           rdf:resource="http://purl.org/dc/dcmitype/StillImage" /><dc:title></dc:title></cc:Work></rdf:RDF></metadata><defs
     id="defs6"><clipPath
       id="clipPath16"><path
         d="M 0,0 16,0 16,16 0,16 0,0 z"
         id="path18" /></clipPath></defs><g
     transform="matrix(1.25,0,0,-1.25,0,20)"
     id="g10"><g
       transform="matrix(1.2057511,0,0,1.2057511,-1.2829874,-1.4557112)"
       id="g12"
       style="fill:#ffffff;fill-opacity:1"><g
         clip-path="url(#clipPath16)"
         id="g14"
         style="fill:#ffffff;fill-opacity:1"><g
           transform="translate(10.5273,7.8408)"
           id="g20"
           style="fill:#ffffff;fill-opacity:1"><path
             d="m 0,0 3.182,3.182 c 0.388,0.389 0.388,1.025 0,1.414 L 1.766,6.01 C 1.377,6.398 0.74,6.398 0.352,6.01 L -2.831,2.828 -6.012,6.01 c -0.388,0.388 -1.025,0.388 -1.414,0 L -8.839,4.596 c -0.39,-0.389 -0.39,-1.025 0,-1.414 L -5.657,0 -8.839,-3.183 c -0.39,-0.388 -0.39,-1.025 0,-1.414 l 1.414,-1.413 c 0.389,-0.389 1.026,-0.389 1.414,0 l 3.182,3.181 3.182,-3.181 c 0.389,-0.389 1.024,-0.389 1.416,0 l 1.414,1.413 c 0.389,0.389 0.389,1.026 0,1.414 L 0,0 z"
             id="path22"
             style="fill:#ffffff;fill-opacity:1;fill-rule:nonzero;stroke:none" /></g></g></g></g></svg>