<?xml version="1.0" encoding="UTF-8" standalone="no"?>
<!-- Created with Inkscape (http://www.inkscape.org/) -->

<svg
   xmlns:dc="http://purl.org/dc/elements/1.1/"
   xmlns:cc="http://creativecommons.org/ns#"
   xmlns:rdf="http://www.w3.org/1999/02/22-rdf-syntax-ns#"
   xmlns:svg="http://www.w3.org/2000/svg"
   xmlns="http://www.w3.org/2000/svg"
   xmlns:sodipodi="http://sodipodi.sourceforge.net/DTD/sodipodi-0.dtd"
   xmlns:inkscape="http://www.inkscape.org/namespaces/inkscape"
   id="svg2"
   version="1.1"
   inkscape:version="0.48.4 r9939"
   width="22"
   height="22"
   xml:space="preserve"
   sodipodi:docname="check.svg"
   inkscape:export-filename="/home/simon/Kullo/farcaster/icons/20/status_done_b.png"
   inkscape:export-xdpi="81.818184"
   inkscape:export-ydpi="81.818184"><metadata
     id="metadata8"><rdf:RDF><cc:Work
         rdf:about=""><dc:format>image/svg+xml</dc:format><dc:type
           rdf:resource="http://purl.org/dc/dcmitype/StillImage" /><dc:title></dc:title></cc:Work></rdf:RDF></metadata><defs
     id="defs6"><clipPath
       clipPathUnits="userSpaceOnUse"
       id="clipPath16"><path
         d="M 0,0 16,0 16,16 0,16 0,0 z"
         id="path18"
         inkscape:connector-curvature="0" /></clipPath></defs><sodipodi:namedview
     pagecolor="#ffffff"
     bordercolor="#666666"
     borderopacity="1"
     objecttolerance="10"
     gridtolerance="10"
     guidetolerance="10"
     inkscape:pageopacity="0"
     inkscape:pageshadow="2"
     inkscape:window-width="1855"
     inkscape:window-height="1056"
     id="namedview4"
     showgrid="false"
     showguides="true"
     inkscape:guide-bbox="true"
     inkscape:zoom="16.68772"
     inkscape:cx="-6.3106804"
     inkscape:cy="8.9043378"
     inkscape:window-x="65"
     inkscape:window-y="24"
     inkscape:window-maximized="1"
     inkscape:current-layer="layer2"><sodipodi:guide
       orientation="0,1"
       position="0,11"
       id="guide2999" /><sodipodi:guide
       orientation="1,0"
       position="11,0"
       id="guide3001" /><sodipodi:guide
       orientation="1,0"
       position="21.482863,13.572855"
       id="guide3131" /></sodipodi:namedview><g
     id="g10"
     inkscape:groupmode="layer"
     inkscape:label="Circle Original"
     transform="matrix(1.25,0,0,-1.25,0,22)"
     style="display:none"><path
       inkscape:connector-curvature="0"
       id="path22"
       style="fill:#1d1d1b;fill-opacity:1;fill-rule:nonzero;stroke:none"
       d="M 13.005,7.002 C 13.005,3.691 10.312,1 7.003,1 3.693,1 1,3.691 1,7.002 c 0,3.312 2.693,6.004 6.003,6.004 4.899321,0.124858 5.996675,-5.9454633 6.002,-6.004 M 7.003,14.005 C 3.142,14.005 0,10.862 0,7.002 0,3.141 3.142,0 7.003,0 c 3.861,0 7.002,3.141 7.002,7.002 -0.272955,3.072389 -2.621393,6.998768 -7.002,7.003 z"
       sodipodi:nodetypes="csscccsscc" /></g><g
     inkscape:groupmode="layer"
     id="layer2"
     inkscape:label="Full"
     style="display:none"><path
       sodipodi:type="arc"
       style="color:#000000;fill:#1a171b;fill-opacity:1;fill-rule:nonzero;stroke:none;stroke-width:10;marker:none;visibility:visible;display:inline;overflow:visible;enable-background:accumulate"
       id="path3029"
       sodipodi:cx="-6.6066546"
       sodipodi:cy="7.2736025"
       sodipodi:rx="2.0823696"
       sodipodi:ry="2.1123316"
       d="m -4.5242851,7.2736025 a 2.0823696,2.1123316 0 1 1 -4.1647391,0 2.0823696,2.1123316 0 1 1 4.1647391,0 z"
       transform="matrix(4.2033845,0,0,4.1437622,38.763006,-19.132775)" /></g><g
     inkscape:groupmode="layer"
     id="layer3"
     inkscape:label="Circle"
     style="display:inline"><path
       style="color:#000000;fill:#1a171b;fill-opacity:1;fill-rule:nonzero;stroke:none;stroke-width:10;marker:none;visibility:visible;display:inline;overflow:visible;enable-background:accumulate"
       d="m 10.989696,2.2603024 c -4.8341468,0 -8.7499984,3.9158516 -8.7499984,8.7500016 0,4.834148 3.9158516,8.75 8.7499984,8.75 4.834148,0 8.75,-3.915852 8.75,-8.75 0,-4.83415 -3.915852,-8.7500016 -8.75,-8.7500016 z m 0,1.25 c 4.142136,0 7.5,3.3578643 7.5,7.5000016 0,4.142136 -3.357864,7.5 -7.5,7.5 -4.1421341,0 -7.4999984,-3.357864 -7.4999984,-7.5 0,-4.1421373 3.3578643,-7.5000016 7.4999984,-7.5000016 z"
       id="path3029-5"
       inkscape:connector-curvature="0" /></g><g
     inkscape:groupmode="layer"
     id="layer1"
     inkscape:label="Check"
     style="display:inline"><path
       inkscape:connector-curvature="0"
       id="path22-3"
       style="fill:#1a171b;fill-opacity:1;fill-rule:nonzero;stroke:none;display:inline"
       d="m 20.024696,1.0413024 -9.31625,10.7227516 -4.0212484,-4.018752 -1.34,2.680002 4.1675,4.6625 0.9712484,1.2125 1.0125,-1.17375 9.93225,-12.7422516"
       sodipodi:nodetypes="cccccccc" /></g></svg>