<?xml version="1.0" encoding="utf-8"?>
<!-- Generator: Adobe Illustrator 17.0.0, SVG Export Plug-In . SVG Version: 6.00 Build 0)  -->
<!DOCTYPE svg PUBLIC "-//W3C//DTD SVG 1.1//EN" "http://www.w3.org/Graphics/SVG/1.1/DTD/svg11.dtd">
<svg version="1.1" id="Layer_1" xmlns="http://www.w3.org/2000/svg" xmlns:xlink="http://www.w3.org/1999/xlink" x="0px" y="0px"
	 width="100px" height="100px" viewBox="0 0 100 100" enable-background="new 0 0 100 100" xml:space="preserve">
<g>
	<rect x="31.25" y="37.5" fill="#1D1D1B" width="6.25" height="43.75"/>
	<rect x="43.75" y="37.5" fill="#1D1D1B" width="6.25" height="43.75"/>
	<rect x="56.25" y="37.5" fill="#1D1D1B" width="6.25" height="43.75"/>
	<path fill="#1D1D1B" d="M87.5,18.75H75V6.25C75,2.8,72.206,0,68.75,0H25c-3.45,0-6.25,2.8-6.25,6.25v12.5H6.25
		C2.8,18.75,0,21.55,0,25s2.8,6.25,6.25,6.25h6.25v62.5c0,3.456,2.8,6.25,6.25,6.25H75c3.456,0,6.25-2.794,6.25-6.25v-62.5h6.25
		c3.456,0,6.25-2.8,6.25-6.25S90.956,18.75,87.5,18.75z M31.25,12.5H62.5v6.25H31.25V12.5z M68.75,87.5H25V31.25h43.75V87.5z"/>
</g>
</svg>
