<?xml version="1.0" encoding="UTF-8" standalone="no"?>
<svg
   xmlns:dc="http://purl.org/dc/elements/1.1/"
   xmlns:cc="http://creativecommons.org/ns#"
   xmlns:rdf="http://www.w3.org/1999/02/22-rdf-syntax-ns#"
   xmlns:svg="http://www.w3.org/2000/svg"
   xmlns="http://www.w3.org/2000/svg"
   xml:space="preserve"
   enable-background="new 0 0 100 100"
   viewBox="0 0 100 100"
   height="100px"
   width="100px"
   y="0px"
   x="0px"
   id="Layer_1"
   version="1.1"><metadata
     id="metadata17"><rdf:RDF><cc:Work
         rdf:about=""><dc:format>image/svg+xml</dc:format><dc:type
           rdf:resource="http://purl.org/dc/dcmitype/StillImage" /><dc:title></dc:title></cc:Work></rdf:RDF></metadata><defs
     id="defs15" /><g
     transform="translate(3.125,0)"
     style="fill:#1a171b;fill-opacity:1"
     id="g3"><rect
       style="fill:#1a171b;fill-opacity:1"
       id="rect5"
       height="43.75"
       width="6.25"
       y="37.5"
       x="31.25" /><rect
       style="fill:#1a171b;fill-opacity:1"
       id="rect7"
       height="43.75"
       width="6.25"
       y="37.5"
       x="43.75" /><rect
       style="fill:#1a171b;fill-opacity:1"
       id="rect9"
       height="43.75"
       width="6.25"
       y="37.5"
       x="56.25" /><path
       style="fill:#1a171b;fill-opacity:1"
       id="path11"
       d="m 87.5,18.75 -12.5,0 0,-12.5 C 75,2.8 72.206,0 68.75,0 L 25,0 c -3.45,0 -6.25,2.8 -6.25,6.25 l 0,12.5 -12.5,0 C 2.8,18.75 0,21.55 0,25 c 0,3.45 2.8,6.25 6.25,6.25 l 6.25,0 0,62.5 c 0,3.456 2.8,6.25 6.25,6.25 L 75,100 c 3.456,0 6.25,-2.794 6.25,-6.25 l 0,-62.5 6.25,0 c 3.456,0 6.25,-2.8 6.25,-6.25 0,-3.45 -2.794,-6.25 -6.25,-6.25 z m -56.25,-6.25 31.25,0 0,6.25 -31.25,0 0,-6.25 z m 37.5,75 -43.75,0 0,-56.25 43.75,0 0,56.25 z" /></g></svg>