<?xml version="1.0" encoding="UTF-8" standalone="no"?>
<!-- Created with Inkscape (http://www.inkscape.org/) -->

<svg
   xmlns:dc="http://purl.org/dc/elements/1.1/"
   xmlns:cc="http://creativecommons.org/ns#"
   xmlns:rdf="http://www.w3.org/1999/02/22-rdf-syntax-ns#"
   xmlns:svg="http://www.w3.org/2000/svg"
   xmlns="http://www.w3.org/2000/svg"
   xmlns:sodipodi="http://sodipodi.sourceforge.net/DTD/sodipodi-0.dtd"
   xmlns:inkscape="http://www.inkscape.org/namespaces/inkscape"
   version="1.1"
   width="20"
   height="20"
   id="svg2"
   xml:space="preserve"
   inkscape:version="0.48.4 r9939"
   sodipodi:docname="info_b.svg"><sodipodi:namedview
     pagecolor="#ffffff"
     bordercolor="#666666"
     borderopacity="1"
     objecttolerance="10"
     gridtolerance="10"
     guidetolerance="10"
     inkscape:pageopacity="0"
     inkscape:pageshadow="2"
     inkscape:window-width="1855"
     inkscape:window-height="1056"
     id="namedview16"
     showgrid="false"
     inkscape:zoom="11.8"
     inkscape:cx="10"
     inkscape:cy="10"
     inkscape:window-x="65"
     inkscape:window-y="24"
     inkscape:window-maximized="1"
     inkscape:current-layer="svg2" /><metadata
     id="metadata8"><rdf:RDF><cc:Work
         rdf:about=""><dc:format>image/svg+xml</dc:format><dc:type
           rdf:resource="http://purl.org/dc/dcmitype/StillImage" /><dc:title /></cc:Work></rdf:RDF></metadata><defs
     id="defs6"><clipPath
       id="clipPath16"><path
         d="M 0,0 16,0 16,16 0,16 0,0 z"
         id="path18" /></clipPath></defs><g
     transform="matrix(1.2998914,0,0,-1.2998914,-0.41596525,20.415965)"
     id="g10"><g
       transform="translate(0.32,0.32)"
       id="g12"
       style="fill:#1a171b;fill-opacity:1"><g
         clip-path="url(#clipPath16)"
         id="g14"
         style="fill:#1a171b;fill-opacity:1"><g
           transform="translate(8.0249,10.6191)"
           id="g20"
           style="fill:#1a171b;fill-opacity:1"><path
             d="M 0,0 C 0.534,0 0.971,0.438 0.971,0.982 0.971,1.527 0.534,1.953 0,1.953 -0.545,1.953 -0.982,1.527 -0.982,0.982 -0.982,0.438 -0.545,0 0,0"
             id="path22"
             style="fill:#1a171b;fill-opacity:1;fill-rule:nonzero;stroke:none"
             inkscape:connector-curvature="0" /></g><g
           transform="translate(9.541,5.1016)"
           id="g24"
           style="fill:#1a171b;fill-opacity:1"><path
             d="m 0,0 -0.758,0 0,4.583 c 0,0.13 -0.023,0.166 -0.166,0.166 l -2.107,0 c -0.143,0 -0.166,-0.036 -0.166,-0.166 l 0,-0.77 c 0,-0.13 0.023,-0.167 0.166,-0.167 l 0.769,0 0,-3.646 -0.758,0 c -0.142,0 -0.166,-0.035 -0.166,-0.166 l 0,-0.77 c 0,-0.13 0.024,-0.166 0.166,-0.166 l 3.02,0 c 0.143,0 0.166,0.036 0.166,0.166 l 0,0.77 C 0.166,-0.035 0.143,0 0,0"
             id="path26"
             style="fill:#1a171b;fill-opacity:1;fill-rule:nonzero;stroke:none"
             inkscape:connector-curvature="0" /></g><g
           transform="translate(7.6929,1.125)"
           id="g28"
           style="fill:#1a171b;fill-opacity:1"><path
             d="m 0,0 c -3.621,0 -6.568,2.945 -6.568,6.566 0,3.623 2.947,6.568 6.568,6.568 3.622,0 6.568,-2.946 6.568,-6.568 C 6.569,2.945 3.622,0 0,0 m 0,14.26 c -4.248,0 -7.693,-3.444 -7.693,-7.692 0,-4.25 3.445,-7.693 7.693,-7.693 4.249,0 7.693,3.443 7.693,7.693 C 7.694,10.816 4.249,14.26 0,14.26"
             id="path30"
             style="fill:#1a171b;fill-opacity:1;fill-rule:nonzero;stroke:none"
             inkscape:connector-curvature="0" /></g></g></g></g></svg>