<?xml version="1.0" encoding="UTF-8" standalone="no"?>
<!-- Created with Inkscape (http://www.inkscape.org/) -->

<svg
   xmlns:dc="http://purl.org/dc/elements/1.1/"
   xmlns:cc="http://creativecommons.org/ns#"
   xmlns:rdf="http://www.w3.org/1999/02/22-rdf-syntax-ns#"
   xmlns:svg="http://www.w3.org/2000/svg"
   xmlns="http://www.w3.org/2000/svg"
   version="1.1"
   width="20"
   height="20"
   id="svg2"
   xml:space="preserve"><metadata
     id="metadata8"><rdf:RDF><cc:Work
         rdf:about=""><dc:format>image/svg+xml</dc:format><dc:type
           rdf:resource="http://purl.org/dc/dcmitype/StillImage" /><dc:title></dc:title></cc:Work></rdf:RDF></metadata><defs
     id="defs6"><clipPath
       id="clipPath16"><path
         d="M 0,0 16,0 16,16 0,16 0,0 z"
         id="path18" /></clipPath></defs><g
     transform="matrix(1.25,0,0,-1.25,0,20)"
     id="g10"><g
       id="g3049"
       style="fill:#1a171b;fill-opacity:1"><g
         id="g12"
         style="fill:#1a171b;fill-opacity:1"><g
           clip-path="url(#clipPath16)"
           id="g14"
           style="fill:#1a171b;fill-opacity:1"><g
             transform="translate(12,6)"
             id="g20"
             style="fill:#1a171b;fill-opacity:1"><path
               d="M 0,0 C 0,1.818 -0.011,5.283 -3.021,5.896 -3.018,5.932 -3,5.963 -3,6 -3,6.552 -3.448,7 -4,7 -4.552,7 -5,6.552 -5,6 -5,5.963 -4.983,5.932 -4.979,5.896 -7.989,5.283 -8,1.818 -8,0 c 0,-2 -2,-3 -2,-3 l 0,-1 12,0 0,1 c 0,0 -2,1 -2,3"
               id="path22"
               style="fill:#1a171b;fill-opacity:1;fill-rule:nonzero;stroke:none" /></g><g
             transform="translate(7,0)"
             id="g24"
             style="fill:#1a171b;fill-opacity:1"><path
               d="M 0,0 2,0 C 2.55,0 3,0.449 3,1 L -1,1 C -1,0.449 -0.55,0 0,0"
               id="path26"
               style="fill:#1a171b;fill-opacity:1;fill-rule:nonzero;stroke:none" /></g></g></g><g
         transform="translate(0,15.0003)"
         id="g28"
         style="fill:#1a171b;fill-opacity:1"><path
           d="M 0,0 0,-1 1.982,-1 0,-3.217 l 0,-0.784 3,0 0,1 -1.465,0 L 3,-1.361 3,0 0,0 z"
           id="path30"
           style="fill:#1a171b;fill-opacity:1;fill-rule:nonzero;stroke:none" /></g><g
         transform="translate(16,16)"
         id="g32"
         style="fill:#1a171b;fill-opacity:1"><path
           d="m 0,0 -4,0 0,-1 2.283,0 L -4,-4.143 -4,-5 0,-5 0,-4 -2.661,-4 0,-0.34 0,0 z"
           id="path34"
           style="fill:#1a171b;fill-opacity:1;fill-rule:nonzero;stroke:none" /></g></g></g></svg>