<?xml version="1.0" encoding="UTF-8" standalone="no"?>
<!-- Created with Inkscape (http://www.inkscape.org/) -->

<svg
   xmlns:dc="http://purl.org/dc/elements/1.1/"
   xmlns:cc="http://creativecommons.org/ns#"
   xmlns:rdf="http://www.w3.org/1999/02/22-rdf-syntax-ns#"
   xmlns:svg="http://www.w3.org/2000/svg"
   xmlns="http://www.w3.org/2000/svg"
   version="1.1"
   width="20"
   height="20"
   id="svg2"
   xml:space="preserve"><metadata
     id="metadata8"><rdf:RDF><cc:Work
         rdf:about=""><dc:format>image/svg+xml</dc:format><dc:type
           rdf:resource="http://purl.org/dc/dcmitype/StillImage" /><dc:title></dc:title></cc:Work></rdf:RDF></metadata><defs
     id="defs6" /><path
     d="m 17.777779,-7.6e-7 -10.0000013,0 C 6.5777791,-7.6e-7 5.6,0.97777794 5.6,2.2222219 l 0,3.3333335 2.1777777,0 0,-3.3333335 10.0000013,0 0,15.5555561 -10.0000013,0 0,-2.222222 -2.1777777,0 0,2.222222 C 5.6,18.977776 6.5777791,20 7.7777777,20 l 10.0000013,0 c 1.244443,0 2.222222,-1.022224 2.222222,-2.222222 l 0,-15.5555561 C 20.000001,0.97777794 19.022222,-7.6e-7 17.777779,-7.6e-7 M 10,14.888889 14.444446,10.533333 10,6.2222224 l 0,2.666667 -10,0 0,3.3333326 10,0 0,2.666667"
     id="path3758"
     style="font-size:64px;font-style:normal;font-variant:normal;font-weight:bold;font-stretch:normal;line-height:125%;letter-spacing:0px;word-spacing:0px;fill:#ffffff;fill-opacity:1;stroke:none;font-family:Times New Roman;-inkscape-font-specification:Times New Roman" /></svg>