<?xml version="1.0" encoding="UTF-8" standalone="no"?>
<!-- Created with Inkscape (http://www.inkscape.org/) -->

<svg
   xmlns:dc="http://purl.org/dc/elements/1.1/"
   xmlns:cc="http://creativecommons.org/ns#"
   xmlns:rdf="http://www.w3.org/1999/02/22-rdf-syntax-ns#"
   xmlns:svg="http://www.w3.org/2000/svg"
   xmlns="http://www.w3.org/2000/svg"
   version="1.1"
   width="20"
   height="20"
   id="svg2"
   xml:space="preserve"><metadata
     id="metadata8"><rdf:RDF><cc:Work
         rdf:about=""><dc:format>image/svg+xml</dc:format><dc:type
           rdf:resource="http://purl.org/dc/dcmitype/StillImage" /><dc:title></dc:title></cc:Work></rdf:RDF></metadata><defs
     id="defs6"><clipPath
       id="clipPath16"><path
         d="M 0,0 16,0 16,16 0,16 0,0 z"
         id="path18" /></clipPath></defs><g
     transform="matrix(1.25,0,0,-1.25,0,20)"
     id="g10"><g
       transform="matrix(1.0285714,0,0,1.0285714,-0.2285714,0)"
       id="g12"
       style="fill:#1a171b;fill-opacity:1"><g
         clip-path="url(#clipPath16)"
         id="g14"
         style="fill:#1a171b;fill-opacity:1"><g
           transform="translate(8.0313,7)"
           id="g20"
           style="fill:#1a171b;fill-opacity:1"><path
             d="m 0,0 c 0.533,0 0.969,0.449 0.969,1 l 0,6 C 0.969,7.549 0.533,8 0,8 -0.532,8 -0.969,7.549 -0.969,7 l 0,-6 C -0.969,0.449 -0.532,0 0,0"
             id="path22"
             style="fill:#1a171b;fill-opacity:1;fill-rule:nonzero;stroke:none" /></g><g
           transform="translate(11,13.3159)"
           id="g24"
           style="fill:#1a171b;fill-opacity:1"><path
             d="m 0,0 0,-2.342 c 1.207,-0.913 2,-2.347 2,-3.974 0,-2.758 -2.242,-5 -5,-5 -2.756,0 -5,2.242 -5,5 0,1.686 0.844,3.171 2.125,4.079 l 0,2.298 C -8.305,-1.037 -10,-3.477 -10,-6.316 c 0,-3.867 3.135,-7 7,-7 3.867,0 7,3.133 7,7 C 4,-3.524 2.363,-1.123 0,0"
             id="path26"
             style="fill:#1a171b;fill-opacity:1;fill-rule:nonzero;stroke:none" /></g></g></g></g></svg>