<?xml version="1.0" encoding="utf-8"?>
<!-- Generator: Adobe Illustrator 17.0.0, SVG Export Plug-In . SVG Version: 6.00 Build 0)  -->
<!DOCTYPE svg PUBLIC "-//W3C//DTD SVG 1.1//EN" "http://www.w3.org/Graphics/SVG/1.1/DTD/svg11.dtd">
<svg version="1.1" id="Layer_1" xmlns="http://www.w3.org/2000/svg" xmlns:xlink="http://www.w3.org/1999/xlink" x="0px" y="0px"
	 width="100px" height="100px" viewBox="0 0 100 100" enable-background="new 0 0 100 100" xml:space="preserve">
<g>
	<path fill="#1D1D1B" d="M98.306,74.912c-2.538-3.7-11.713-7.825-20.181-11.106c-8.456-3.294-11.969-4.175-11.969-4.175
		l-0.281-5.469c0,0,6.775-1.562,6.481-9.95c0.075,2.056,4.062-2.756,4.175-4.494c0.112-1.675-0.269-6.319-2.694-5.844
		c0.494-3.494,0.856-6.638,0.675-8.306c-0.6-5.794-6.494-11.825-15.588-12.387c3.713,3.431,6.163,7.944,6.625,12.694
		c0.144,1.5,0.069,3.456-0.244,6.513c2.5,3.475,2.337,8.569,2.269,9.594C67.412,44.994,65.6,48.812,62.681,51
		c-0.888,3.625-2.206,6.144-3.394,7.825l0.013,1.919c1.487,0.681,3.638,1.625,6.656,2.887c1.831,0.763,3.669,1.469,5.444,2.169
		c7.45,2.894,13.9,5.381,16.975,10.188C90.581,79.419,91.456,87.5,90.969,100h9.025c0,0,0.002-0.088,0.006-0.251V88.492
		C99.858,82.696,99.433,76.552,98.306,74.912z"/>
	<path fill="#1D1D1B" d="M63.556,69.4c-8.463-3.525-10.469-4.75-10.469-4.75l-0.081-8.119c0,0,3.175-2.444,4.163-10.075
		c0.144,0.044,0.294,0.062,0.438,0.062c1.837,0,3.631-3.156,3.731-4.881c0.106-1.706-0.231-6.3-2.356-6.3
		c-0.112,0-0.219,0.006-0.331,0.031c0.494-3.744,0.856-7.113,0.681-8.9c-0.45-4.669-3.912-9.481-9.45-11.862
		c-2.188-0.938-4.675-1.538-7.475-1.538c-9.869,0-16.294,6.881-16.925,13.4c-0.175,1.787,0.181,5.156,0.681,8.9
		c-0.112-0.031-0.231-0.038-0.331-0.038c-2.125,0-2.469,4.594-2.362,6.3c0.1,1.725,1.894,4.881,3.731,4.881
		c0.15,0,0.294-0.019,0.444-0.062c0.981,7.638,4.156,10.081,4.156,10.081l-0.081,8.119c0,0-2.006,1.219-10.469,4.75
		S4.237,75.394,1.7,79.362C-0.588,82.912,0.1,100,0.1,100h84.619c0,0,0.681-17.081-1.6-20.638
		C80.575,75.388,72.013,72.925,63.556,69.4z"/>
</g>
</svg>
