<?xml version="1.0" encoding="UTF-8" standalone="no"?>
<!-- Created with Inkscape (http://www.inkscape.org/) -->

<svg
   xmlns:dc="http://purl.org/dc/elements/1.1/"
   xmlns:cc="http://creativecommons.org/ns#"
   xmlns:rdf="http://www.w3.org/1999/02/22-rdf-syntax-ns#"
   xmlns:svg="http://www.w3.org/2000/svg"
   xmlns="http://www.w3.org/2000/svg"
   version="1.1"
   width="20"
   height="20"
   id="svg2"
   xml:space="preserve"><metadata
     id="metadata8"><rdf:RDF><cc:Work
         rdf:about=""><dc:format>image/svg+xml</dc:format><dc:type
           rdf:resource="http://purl.org/dc/dcmitype/StillImage" /><dc:title></dc:title></cc:Work></rdf:RDF></metadata><defs
     id="defs6"><clipPath
       id="clipPath16"><path
         d="M 0,0 16,0 16,16 0,16 0,0 z"
         id="path18" /></clipPath></defs><g
     transform="matrix(1.25,0,0,-1.25,0,20)"
     id="g10"><g
       transform="matrix(0.9753124,0,0,0.9753124,-0.00499847,0.57057226)"
       id="g12"
       style="fill:#ffffff;fill-opacity:1"><g
         clip-path="url(#clipPath16)"
         id="g14"
         style="fill:#ffffff;fill-opacity:1"><g
           transform="translate(15.707,12.021)"
           id="g20"
           style="fill:#ffffff;fill-opacity:1"><path
             d="M 0,0 -1.414,1.415 C -1.803,1.804 -2.438,1.802 -2.822,1.41 l -6.783,-7.048 -2.567,2.567 c -0.389,0.388 -1.025,0.388 -1.414,0 L -15,-4.486 c -0.389,-0.389 -0.389,-1.025 0,-1.414 l 2.566,-2.566 2.121,-2.121 c 0.389,-0.389 1.026,-0.389 1.415,0 l 2.121,2.121 6.783,7.048 C 0.391,-1.026 0.389,-0.389 0,0"
             id="path22"
             style="fill:#ffffff;fill-opacity:1;fill-rule:nonzero;stroke:none" /></g></g></g></g></svg>