<?xml version="1.0" encoding="UTF-8" standalone="no"?>
<!-- Created with Inkscape (http://www.inkscape.org/) -->

<svg
   xmlns:dc="http://purl.org/dc/elements/1.1/"
   xmlns:cc="http://creativecommons.org/ns#"
   xmlns:rdf="http://www.w3.org/1999/02/22-rdf-syntax-ns#"
   xmlns:svg="http://www.w3.org/2000/svg"
   xmlns="http://www.w3.org/2000/svg"
   version="1.1"
   width="20"
   height="20"
   id="svg2"
   xml:space="preserve"><metadata
     id="metadata8"><rdf:RDF><cc:Work
         rdf:about=""><dc:format>image/svg+xml</dc:format><dc:type
           rdf:resource="http://purl.org/dc/dcmitype/StillImage" /><dc:title></dc:title></cc:Work></rdf:RDF></metadata><defs
     id="defs6"><clipPath
       id="clipPath16"><path
         d="M 0,0 16,0 16,16 0,16 0,0 z"
         id="path18" /></clipPath></defs><g
     transform="matrix(1.25,0,0,-1.25,0,20)"
     id="g10"><g
       transform="matrix(1.0665956,0,0,1.0665956,-0.02239851,0.0016)"
       id="g12"
       style="fill:#1a171b;fill-opacity:1"><g
         clip-path="url(#clipPath16)"
         id="g14"
         style="fill:#1a171b;fill-opacity:1"><g
           transform="translate(7.314,5.417)"
           id="g20"
           style="fill:#1a171b;fill-opacity:1"><path
             d="m 0,0 c -1.15,0 -2.082,0.931 -2.082,2.083 0,1.15 0.932,2.081 2.082,2.081 1.151,0 2.084,-0.931 2.084,-2.081 C 2.084,0.931 1.151,0 0,0 m 6.874,3.542 -2.09,0 c -0.125,0.4 -0.3,0.778 -0.513,1.13 l 1.386,1.39 c 0.327,0.322 0.327,0.851 0,1.177 L 5.068,7.826 C 4.743,8.151 4.213,8.149 3.89,7.826 L 2.48,6.419 C 2.1,6.636 1.688,6.804 1.249,6.917 l 0,1.83 c 0,0.459 -0.371,0.834 -0.834,0.834 l -0.833,0 c -0.459,0 -0.832,-0.375 -0.832,-0.834 l 0,-1.83 C -1.729,6.796 -2.178,6.604 -2.59,6.354 l -1.18,1.179 c -0.324,0.323 -0.854,0.325 -1.179,0 L -5.539,6.944 C -5.864,6.62 -5.86,6.091 -5.537,5.765 L -4.336,4.563 C -4.59,4.12 -4.78,3.637 -4.889,3.124 l -1.568,0 c -0.462,0 -0.836,-0.373 -0.836,-0.834 l 0,-0.832 c 0,-0.459 0.374,-0.832 0.836,-0.832 l 1.674,0 c 0.152,-0.502 0.381,-0.965 0.674,-1.387 l -1.133,-1.133 c -0.326,-0.326 -0.326,-0.855 -0.002,-1.18 l 0.588,-0.589 c 0.328,-0.322 0.856,-0.322 1.18,10e-4 l 1.267,1.266 c 0.426,-0.212 0.889,-0.365 1.375,-0.445 l 0,-1.742 c 0,-0.459 0.373,-0.833 0.833,-0.834 l 0.833,0 c 0.46,10e-4 0.833,0.375 0.833,0.834 l 0,1.957 c 0.419,0.148 0.817,0.348 1.179,0.602 l 1.34,-1.344 c 0.326,-0.324 0.854,-0.324 1.18,0 l 0.588,0.59 C 6.28,-2.454 6.28,-1.926 5.95,-1.599 l -1.469,1.473 c 0.18,0.366 0.32,0.756 0.406,1.169 l 1.987,0 c 0.46,0 0.832,0.371 0.834,0.833 l 0,0.832 C 7.706,3.167 7.334,3.542 6.874,3.542"
             id="path22"
             style="fill:#1a171b;fill-opacity:1;fill-rule:nonzero;stroke:none" /></g></g></g></g></svg>