<?xml version="1.0" encoding="UTF-8" standalone="no"?>
<!-- Created with Inkscape (http://www.inkscape.org/) -->

<svg
   xmlns:dc="http://purl.org/dc/elements/1.1/"
   xmlns:cc="http://creativecommons.org/ns#"
   xmlns:rdf="http://www.w3.org/1999/02/22-rdf-syntax-ns#"
   xmlns:svg="http://www.w3.org/2000/svg"
   xmlns="http://www.w3.org/2000/svg"
   xmlns:sodipodi="http://sodipodi.sourceforge.net/DTD/sodipodi-0.dtd"
   xmlns:inkscape="http://www.inkscape.org/namespaces/inkscape"
   id="svg2"
   version="1.1"
   inkscape:version="0.91 r13725"
   width="100"
   height="100"
   xml:space="preserve"
   sodipodi:docname="state_all.svg"
   inkscape:export-filename="/home/simon/Kullo/farcaster/icons/20/status_done_b.png"
   inkscape:export-xdpi="81.818184"
   inkscape:export-ydpi="81.818184"><metadata
     id="metadata8"><rdf:RDF><cc:Work
         rdf:about=""><dc:format>image/svg+xml</dc:format><dc:type
           rdf:resource="http://purl.org/dc/dcmitype/StillImage" /><dc:title></dc:title></cc:Work></rdf:RDF></metadata><defs
     id="defs6"><clipPath
       clipPathUnits="userSpaceOnUse"
       id="clipPath16"><path
         d="M 0,0 16,0 16,16 0,16 0,0 Z"
         id="path18"
         inkscape:connector-curvature="0" /></clipPath></defs><sodipodi:namedview
     pagecolor="#ffffff"
     bordercolor="#666666"
     borderopacity="1"
     objecttolerance="10"
     gridtolerance="10"
     guidetolerance="10"
     inkscape:pageopacity="0"
     inkscape:pageshadow="2"
     inkscape:window-width="1842"
     inkscape:window-height="1047"
     id="namedview4"
     showgrid="false"
     showguides="true"
     inkscape:guide-bbox="true"
     inkscape:zoom="4"
     inkscape:cx="6.1852938"
     inkscape:cy="35.643517"
     inkscape:window-x="78"
     inkscape:window-y="33"
     inkscape:window-maximized="1"
     inkscape:current-layer="layer3" /><g
     id="g10"
     inkscape:groupmode="layer"
     inkscape:label="Circle Original"
     transform="matrix(1.25,0,0,-1.25,0,100)"
     style="display:none"><path
       inkscape:connector-curvature="0"
       id="path22"
       style="fill:#1d1d1b;fill-opacity:1;fill-rule:nonzero;stroke:none"
       d="m 59.113636,31.827273 c 0,-15.05 -12.240909,-27.2818185 -27.281818,-27.2818185 -15.045454,0 -27.2863635,12.2318185 -27.2863635,27.2818185 0,15.054545 12.2409095,27.290909 27.2863635,27.290909 22.269641,0.567536 27.257614,-27.024833 27.281818,-27.290909 M 31.831818,63.659091 C 14.281818,63.659091 0,49.372727 0,31.827273 0,14.277273 14.281818,0 31.831818,0 c 17.55,0 31.827273,14.277273 31.827273,31.827273 -1.240705,13.965404 -11.915423,31.812582 -31.827273,31.831818 z"
       sodipodi:nodetypes="csscccsscc" /></g><g
     inkscape:groupmode="layer"
     id="layer2"
     inkscape:label="Full"
     style="display:none"
     transform="translate(0,78)"><circle
       style="color:#000000;display:inline;overflow:visible;visibility:visible;fill:#1a171b;fill-opacity:1;fill-rule:nonzero;stroke:none;stroke-width:10;marker:none;enable-background:accumulate"
       id="path3029"
       cx="50"
       cy="-28"
       r="40" /></g><g
     inkscape:groupmode="layer"
     id="layer3"
     inkscape:label="Circle"
     style="display:inline"
     transform="translate(0,78)"><path
       style="color:#000000;display:inline;overflow:visible;visibility:visible;fill:#1a171b;fill-opacity:1;fill-rule:nonzero;stroke:none;stroke-width:10;marker:none;enable-background:accumulate"
       d="M 49.999996,-68.000015 C 27.901037,-68.000015 10,-50.098978 10,-28.000005 10,-5.9010397 27.901037,12 49.999996,12 72.098961,12 90,-5.9010397 90,-28.000005 90,-50.098978 72.098961,-68.000015 49.999996,-68.000015 Z m 0,5.714286 c 18.935481,0 34.285718,15.350239 34.285718,34.285724 0,18.9354815 -15.350237,34.2857184 -34.285718,34.2857184 -18.935472,0 -34.28571,-15.3502369 -34.28571,-34.2857184 0,-18.935485 15.350238,-34.285724 34.28571,-34.285724 z"
       id="path3029-5"
       inkscape:connector-curvature="0" /></g><g
     inkscape:groupmode="layer"
     id="layer1"
     inkscape:label="Check"
     style="display:inline"
     transform="translate(0,78)"><path
       inkscape:connector-curvature="0"
       id="path22-3"
       style="display:inline;fill:#1a171b;fill-opacity:1;fill-rule:nonzero;stroke:none"
       d="m 91.021345,-73.266807 -42.34659,48.73978 -18.278402,-18.267055 -6.090909,12.181827 18.943181,21.1931823 4.414766,5.5113636 4.602273,-5.3352273 45.146591,-57.9193256"
       sodipodi:nodetypes="cccccccc" /></g></svg>