<?xml version="1.0" encoding="UTF-8" standalone="no"?>
<!-- Created with Inkscape (http://www.inkscape.org/) -->

<svg
   xmlns:dc="http://purl.org/dc/elements/1.1/"
   xmlns:cc="http://creativecommons.org/ns#"
   xmlns:rdf="http://www.w3.org/1999/02/22-rdf-syntax-ns#"
   xmlns:svg="http://www.w3.org/2000/svg"
   xmlns="http://www.w3.org/2000/svg"
   xmlns:sodipodi="http://sodipodi.sourceforge.net/DTD/sodipodi-0.dtd"
   xmlns:inkscape="http://www.inkscape.org/namespaces/inkscape"
   version="1.1"
   width="100"
   height="100"
   id="svg2"
   xml:space="preserve"
   inkscape:version="0.91 r13725"
   sodipodi:docname="todo_b.svg"><sodipodi:namedview
     pagecolor="#ffffff"
     bordercolor="#666666"
     borderopacity="1"
     objecttolerance="10"
     gridtolerance="10"
     guidetolerance="10"
     inkscape:pageopacity="0"
     inkscape:pageshadow="2"
     inkscape:window-width="1842"
     inkscape:window-height="1047"
     id="namedview16"
     showgrid="false"
     inkscape:zoom="4.17193"
     inkscape:cx="44.150757"
     inkscape:cy="40.62943"
     inkscape:window-x="78"
     inkscape:window-y="33"
     inkscape:window-maximized="1"
     inkscape:current-layer="svg2" /><metadata
     id="metadata8"><rdf:RDF><cc:Work
         rdf:about=""><dc:format>image/svg+xml</dc:format><dc:type
           rdf:resource="http://purl.org/dc/dcmitype/StillImage" /><dc:title></dc:title></cc:Work></rdf:RDF></metadata><defs
     id="defs6"><clipPath
       id="clipPath16"><path
         d="M 0,0 16,0 16,16 0,16 0,0 Z"
         id="path18"
         inkscape:connector-curvature="0" /></clipPath></defs><g
     transform="matrix(6.25,0,0,-6.2499217,0,99.999998)"
     id="g10"><path
       d="m 3.8003,9 4.001,0 0,1 -4.001,0 0,-1 z"
       id="path24"
       style="fill:#1a171b;fill-opacity:1;fill-rule:nonzero;stroke:none"
       inkscape:connector-curvature="0" /><path
       d="m 3.8003,7 5.426,0 0,1 -5.426,0 0,-1 z"
       id="path26"
       style="fill:#1a171b;fill-opacity:1;fill-rule:nonzero;stroke:none"
       inkscape:connector-curvature="0" /><path
       d="m 3.8003,5 4.401,0 0,1 -4.401,0 0,-1 z"
       id="path28"
       style="fill:#1a171b;fill-opacity:1;fill-rule:nonzero;stroke:none"
       inkscape:connector-curvature="0" /><g
       transform="translate(3.8,16.0002)"
       id="g30"
       style="fill:#1a171b;fill-opacity:1"><path
         d="m 0,0 0,-1 -3,0 0,-15 6.001,0 0,2 -4.001,0 0,10.999 1,0 0,-1 7,0 0,1 1,0 0,-2.999 2,0 0,5 -3,0 0,1 -7,0 z m 1,-1 5,0 0,-1 -5,0 0,1 z"
         id="path32"
         style="fill:#1a171b;fill-opacity:1;fill-rule:nonzero;stroke:none"
         inkscape:connector-curvature="0" /></g><g
       id="g3822"
       style="fill:#1a171b;fill-opacity:1"><rect
         width="2"
         height="10.508952"
         x="11.8"
         y="-10.508952"
         transform="scale(1,-1)"
         id="rect3800"
         style="color:#000000;display:inline;overflow:visible;visibility:visible;fill:#1a171b;fill-opacity:1;fill-rule:nonzero;stroke:none;stroke-width:2;marker:none;enable-background:accumulate" /><rect
         width="2"
         height="10.508952"
         x="-1.9999995"
         y="-13.8"
         transform="matrix(0,-1,-1,0,0,0)"
         id="rect3800-1"
         style="color:#000000;display:inline;overflow:visible;visibility:visible;fill:#1a171b;fill-opacity:1;fill-rule:nonzero;stroke:none;stroke-width:2;marker:none;enable-background:accumulate" /></g></g></svg>