<?xml version="1.0" encoding="UTF-8" standalone="no"?>
<!-- Created with Inkscape (http://www.inkscape.org/) -->

<svg
   xmlns:dc="http://purl.org/dc/elements/1.1/"
   xmlns:cc="http://creativecommons.org/ns#"
   xmlns:rdf="http://www.w3.org/1999/02/22-rdf-syntax-ns#"
   xmlns:svg="http://www.w3.org/2000/svg"
   xmlns="http://www.w3.org/2000/svg"
   version="1.1"
   width="20"
   height="20"
   id="svg2"
   xml:space="preserve"><metadata
     id="metadata8"><rdf:RDF><cc:Work
         rdf:about=""><dc:format>image/svg+xml</dc:format><dc:type
           rdf:resource="http://purl.org/dc/dcmitype/StillImage" /><dc:title></dc:title></cc:Work></rdf:RDF></metadata><defs
     id="defs6"><clipPath
       id="clipPath16"><path
         d="M 0,0 16,0 16,16 0,16 0,0 z"
         id="path18" /></clipPath></defs><g
     transform="matrix(1.25,0,0,-1.25,0,20)"
     id="g10"><g
       transform="translate(0.21556757,-0.8001)"
       id="g12"
       style="fill:#1a171b;fill-opacity:1"><g
         clip-path="url(#clipPath16)"
         id="g14"
         style="fill:#1a171b;fill-opacity:1"><g
           transform="translate(15.2578,3.7891)"
           id="g20"
           style="fill:#1a171b;fill-opacity:1"><path
             d="m 0,0 c -0.467,0.729 -2.035,1.182 -3.59,1.829 -1.553,0.648 -1.922,0.872 -1.922,0.872 l -0.013,1.49 c 0,0 0.582,0.448 0.761,1.85 0.366,-0.105 0.746,0.543 0.768,0.885 0.02,0.329 -0.051,1.242 -0.494,1.15 0.09,0.688 0.156,1.306 0.125,1.633 -0.117,1.197 -1.295,2.46 -3.108,2.46 -1.813,0 -2.992,-1.263 -3.107,-2.46 -0.032,-0.327 0.034,-0.945 0.124,-1.633 -0.444,0.092 -0.514,-0.821 -0.494,-1.15 0.021,-0.342 0.402,-0.99 0.767,-0.885 0.18,-1.402 0.763,-1.85 0.763,-1.85 l -0.015,-1.49 c 0,0 -0.369,-0.224 -1.922,-0.872 -1.554,-0.647 -3.123,-1.1 -3.59,-1.829 -0.419,-0.652 -0.293,-3.789 -0.293,-3.789 l 15.533,0 c 0,0 0.127,3.137 -0.293,3.789"
             id="path22"
             style="fill:#1a171b;fill-opacity:1;fill-rule:nonzero;stroke:none" /></g></g></g></g></svg>